# xmcd
#
# Track frame offsets: 
#        150
#        27284
#        47166
#        66621
#        96128
#        117983
#        155071
#        178734
#        197836
#        220375
#        249325
#        269418
#        292792
#        324528
#
# Disc length: 4635 seconds
#
# Revision: 0
# Processed by: cddbd v1.5.2PL0 Copyright (c) Steve Scherf et al.
# Submitted via: ExactAudioCopy v1.0b3
#
DISCID=d712190e
DTITLE=Huong Lan - Nhung Tinh Khuc Bat Hu
DYEAR=2001
DGENRE=
TTITLE0=Chuyen tinh Mong Thuong
TTITLE1=Thuong ve mien dat lanh
TTITLE2=Hue da xa roi
TTITLE3=Hai ky niem mot chuyen di
TTITLE4=Da Lat hoang hon
TTITLE5=Han Mac Tu
TTITLE6=Xa Hue
TTITLE7=Lang toi
TTITLE8=Tuoi ve chieu
TTITLE9=Nhung buoi chieu vang
TTITLE10=Bao gio em quen
TTITLE11=Sai Gon niem nho khong ten
TTITLE12=Ong lai do
TTITLE13=Chuyen mot chiec cau da gay
EXTD=
EXTT0=
EXTT1=
EXTT2=
EXTT3=
EXTT4=
EXTT5=
EXTT6=
EXTT7=
EXTT8=
EXTT9=
EXTT10=
EXTT11=
EXTT12=
EXTT13=
PLAYORDER=
